<svg xmlns="http://www.w3.org/2000/svg" viewBox="-0.5 -0.5 32 32" id="Flag-Azerbaijan--Streamline-Twemoji.svg" height="32" width="32"><desc>Flag Azerbaijan Streamline Emoji: https://streamlinehq.com</desc><path fill="#e00034" d="M0 11.194444444444443h30.999999999999996v8.61111111111111H0z" stroke-width="1"></path><path fill="#0098c3" d="M27.555555555555554 4.305555555555555H3.444444444444444C1.54225 4.305555555555555 0 5.8478055555555555 0 7.749999999999999v3.444444444444444h30.999999999999996V7.749999999999999c0 -1.9021944444444443 -1.54225 -3.444444444444444 -3.444444444444444 -3.444444444444444z" stroke-width="1"></path><g fill="#ffffff"><path d="M15.365666666666666 18.37008333333333c-1.5853055555555555 0 -2.870083333333333 -1.2847777777777776 -2.870083333333333 -2.870083333333333 0 -1.5853055555555555 1.2847777777777776 -2.870083333333333 2.870083333333333 -2.870083333333333 0.8456111111111111 0 1.6059722222222221 0.3659722222222222 2.13125 0.9480833333333333C16.878638888888887 12.659194444444443 15.828944444444444 12.055555555555555 14.638888888888888 12.055555555555555c-1.9021944444444443 0 -3.444444444444444 1.54225 -3.444444444444444 3.444444444444444s1.54225 3.444444444444444 3.444444444444444 3.444444444444444c1.1900555555555554 0 2.23975 -0.6036388888888888 2.8588888888888886 -1.5224444444444443 -0.5252777777777777 0.5821111111111111 -1.285638888888889 0.9480833333333333 -2.132111111111111 0.9480833333333333z" stroke-width="1"></path><path d="m20.379916666666666 15.498277777777778 -1.0298888888888889 -0.36511111111111105 0.46844444444444444 -0.9868333333333332 -0.9868333333333332 0.46930555555555553 -0.3668333333333333 -1.0290277777777777 -0.36511111111111105 1.0298888888888889 -0.0025833333333333333 -0.0017222222222222222 -0.9851111111111109 -0.4667222222222222 0.4701666666666667 0.9868333333333332 -1.0298888888888889 0.3668333333333333 1.0298888888888889 0.36511111111111105 -0.46844444444444444 0.9868333333333332 0.9825277777777777 -0.46758333333333335 0.0043055555555555555 -0.0017222222222222222 0.3668333333333333 1.0290277777777777 0.36511111111111105 -1.0298888888888889 0.9876944444444444 0.46844444444444444 -0.4701666666666667 -0.9868333333333332z" stroke-width="1"></path></g><path fill="#00ae65" d="M3.444444444444444 26.694444444444443h24.11111111111111c1.9021944444444443 0 3.444444444444444 -1.54225 3.444444444444444 -3.444444444444444v-3.444444444444444H0v3.444444444444444c0 1.9021944444444443 1.54225 3.444444444444444 3.444444444444444 3.444444444444444z" stroke-width="1"></path></svg>