<svg xmlns="http://www.w3.org/2000/svg" viewBox="-0.5 -0.5 32 32" id="Flag-Brazil--Streamline-Twemoji.svg" height="32" width="32"><desc>Flag Brazil Streamline Emoji: https://streamlinehq.com</desc><path fill="#009b3a" d="M30.999999999999996 23.25c0 1.9021944444444443 -1.54225 3.444444444444444 -3.444444444444444 3.444444444444444H3.444444444444444c-1.9021944444444443 0 -3.444444444444444 -1.54225 -3.444444444444444 -3.444444444444444V7.749999999999999c0 -1.9021944444444443 1.54225 -3.444444444444444 3.444444444444444 -3.444444444444444h24.11111111111111c1.9021944444444443 0 3.444444444444444 1.54225 3.444444444444444 3.444444444444444v15.499999999999998z" stroke-width="1"></path><path fill="#fedf01" d="M28.182444444444442 15.499999999999998 15.499999999999998 25.078999999999997 2.8175555555555554 15.499999999999998 15.499999999999998 5.920138888888888z" stroke-width="1"></path><path fill="#002776" d="M9.918277777777778 15.434555555555553a5.561055555555555 5.561055555555555 0 1 0 11.12211111111111 0 5.561055555555555 5.561055555555555 0 1 0 -11.12211111111111 0" stroke-width="1"></path><path fill="#cbe9d4" d="M10.57186111111111 12.81936111111111c-0.28588888888888886 0.53475 -0.4805 1.1220277777777776 -0.5786666666666667 1.7420277777777777 3.440138888888889 -0.24972222222222218 8.109083333333333 1.628361111111111 10.112888888888888 3.956805555555555 0.3461666666666667 -0.5201111111111111 0.6027777777777777 -1.1022222222222222 0.760361111111111 -1.7256666666666665 -2.473111111111111 -2.4179999999999997 -6.8174166666666665 -3.986944444444444 -10.294583333333332 -3.9731666666666663z" stroke-width="1"></path><path fill="#88c9f9" d="M10.333333333333332 15.700638888888887h0.861111111111111v0.861111111111111h-0.861111111111111zm0.861111111111111 1.722222222222222h0.861111111111111v0.861111111111111h-0.861111111111111z" stroke-width="1"></path><path fill="#55acee" d="M12.916666666666666 15.700638888888887h0.861111111111111v0.861111111111111h-0.861111111111111zm1.722222222222222 0.861111111111111h0.861111111111111v0.861111111111111h-0.861111111111111zm3.444444444444444 1.722222222222222h0.861111111111111v0.861111111111111h-0.861111111111111zm-2.583333333333333 0.861111111111111h0.861111111111111v0.861111111111111h-0.861111111111111zm2.583333333333333 -5.166666666666666h0.861111111111111v0.861111111111111h-0.861111111111111z" stroke-width="1"></path><path fill="#3b88c3" d="M16.36111111111111 17.42286111111111h0.861111111111111v0.861111111111111h-0.861111111111111z" stroke-width="1"></path></svg>
