<svg xmlns="http://www.w3.org/2000/svg" viewBox="-0.5 -0.5 32 32" id="Flag-Canada--Streamline-Twemoji.svg" height="32" width="32"><desc>Flag Canada Streamline Emoji: https://streamlinehq.com</desc><path fill="#d52b1e" d="M3.444444444444444 4.305555555555555C1.54225 4.305555555555555 0 5.8478055555555555 0 7.749999999999999v15.499999999999998c0 1.9021944444444443 1.54225 3.444444444444444 3.444444444444444 3.444444444444444h5.166666666666666V4.305555555555555H3.444444444444444zm24.11111111111111 0h-5.166666666666666v22.388888888888886h5.166666666666666c1.9021944444444443 0 3.444444444444444 -1.54225 3.444444444444444 -3.444444444444444V7.749999999999999c0 -1.9021944444444443 -1.54225 -3.444444444444444 -3.444444444444444 -3.444444444444444z" stroke-width="1"></path><path fill="#eeeeee" d="M8.61111111111111 4.305555555555555h13.777777777777777v22.388888888888886H8.61111111111111z" stroke-width="1"></path><path fill="#d52b1e" d="M16.02958333333333 19.041749999999997c1.031611111111111 0.11969444444444445 1.9564444444444442 0.22733333333333333 2.987194444444444 0.34530555555555553l-0.26263888888888887 -0.8628333333333332c-0.042194444444444444 -0.15155555555555553 0.018083333333333333 -0.3168888888888889 0.13691666666666666 -0.40988888888888886l2.9958055555555556 -2.4403888888888887 -0.6199999999999999 -0.29191666666666666c-0.2729722222222222 -0.09730555555555555 -0.19805555555555554 -0.2514444444444444 -0.09902777777777777 -0.6217222222222222l0.45725 -1.667111111111111 -1.7403055555555553 0.36769444444444443c-0.1696388888888889 0.02583333333333333 -0.28244444444444444 -0.08180555555555555 -0.30827777777777776 -0.18513888888888888l-0.22475 -0.7844722222222222 -1.3760555555555556 1.5448333333333333c-0.19547222222222221 0.24799999999999997 -0.5915833333333333 0.24799999999999997 -0.46844444444444444 -0.3237777777777778l0.5881388888888889 -3.1292777777777774 -0.7896388888888889 0.4090277777777777c-0.22130555555555553 0.12399999999999999 -0.44261111111111107 0.14466666666666667 -0.56575 -0.07663888888888888l-1.0893055555555553 -2.0373888888888887v0.05080555555555555l-1.0893055555555553 2.0373888888888887c-0.12399999999999999 0.22130555555555553 -0.34530555555555553 0.2006388888888889 -0.5666111111111111 0.07663888888888888l-0.7887777777777778 -0.4090277777777777 0.5881388888888889 3.1292777777777774c0.12399999999999999 0.5717777777777777 -0.2729722222222222 0.5717777777777777 -0.46844444444444444 0.3237777777777778l-1.3760555555555556 -1.543972222222222 -0.2238888888888889 0.7844722222222222c-0.02583333333333333 0.10333333333333332 -0.13949999999999999 0.2109722222222222 -0.30913888888888885 0.18513888888888888l-1.7403055555555553 -0.36769444444444443 0.45725 1.667111111111111c0.09730555555555555 0.37027777777777776 0.17308333333333334 0.5244166666666666 -0.09988888888888889 0.6217222222222222l-0.6199999999999999 0.29191666666666666 2.9958055555555556 2.4403888888888887c0.11883333333333333 0.09213888888888888 0.17911111111111108 0.2583333333333333 0.13605555555555554 0.40988888888888886l-0.26263888888888887 0.8628333333333332 2.9880555555555555 -0.34530555555555553c0.09127777777777776 0 0.15155555555555553 0.05080555555555555 0.15069444444444444 0.1558611111111111l-0.18427777777777776 3.1895555555555557h0.8232222222222221l-0.18341666666666664 -3.1895555555555557c0.0017222222222222222 -0.10591666666666666 0.06113888888888888 -0.1567222222222222 0.15241666666666664 -0.1567222222222222z" stroke-width="1"></path></svg>