<svg xmlns="http://www.w3.org/2000/svg" viewBox="-0.5 -0.5 32 32" id="Flag-China--Streamline-Twemoji.svg" height="32" width="32"><desc>Flag China Streamline Emoji: https://streamlinehq.com</desc><path fill="#de2910" d="M30.999999999999996 23.25c0 1.9021944444444443 -1.54225 3.444444444444444 -3.444444444444444 3.444444444444444H3.444444444444444c-1.9021944444444443 0 -3.444444444444444 -1.54225 -3.444444444444444 -3.444444444444444V7.749999999999999c0 -1.9021944444444443 1.54225 -3.444444444444444 3.444444444444444 -3.444444444444444h24.11111111111111c1.9021944444444443 0 3.444444444444444 1.54225 3.444444444444444 3.444444444444444v15.499999999999998z" stroke-width="1"></path><path fill="#ffde02" d="m9.589333333333332 7.730194444444444 0.6337777777777778 0.3065555555555555 0.5071944444444444 -0.4873888888888888 -0.09558333333333333 0.6975 0.6199999999999999 0.3323888888888889 -0.6923333333333334 0.12399999999999999 -0.12399999999999999 0.6923333333333334 -0.3323888888888889 -0.6199999999999999 -0.6975 0.09558333333333333 0.4873888888888888 -0.5071944444444444zm4.017083333333333 2.5325277777777773 -0.3065555555555555 0.6329166666666666 0.4873888888888888 0.5080555555555555 -0.6966388888888889 -0.09644444444444444 -0.3323888888888889 0.6208611111111111 -0.12399999999999999 -0.6931944444444444 -0.6931944444444444 -0.12399999999999999 0.6208611111111111 -0.3323888888888889 -0.09644444444444444 -0.6966388888888889 0.5080555555555555 0.4873888888888888zm-0.8240833333333333 3.2541388888888885 0.23077777777777778 0.6647777777777778 0.7035277777777776 0.014638888888888889 -0.5605833333333333 0.4245277777777777 0.2040833333333333 0.67425 -0.5778055555555556 -0.4021388888888889 -0.5778055555555556 0.4021388888888889 0.2032222222222222 -0.67425 -0.5605833333333333 -0.4245277777777777 0.7035277777777776 -0.014638888888888889zm-3.193 2.824444444444444 0.6337777777777778 0.3065555555555555 0.5071944444444444 -0.4873888888888888 -0.09558333333333333 0.6975 0.6199999999999999 0.3323888888888889 -0.6923333333333334 0.12399999999999999 -0.12399999999999999 0.6923333333333334 -0.3323888888888889 -0.6199999999999999 -0.6975 0.09558333333333333 0.4873888888888888 -0.5071944444444444zM6.027777777777778 9.430027777777777l0.7999722222222222 2.3000277777777773 2.4335 0.049944444444444444 -1.9400833333333334 1.4707777777777777 0.7052499999999999 2.3301666666666665L6.027777777777778 14.190249999999999l-1.9986388888888889 1.3906944444444442 0.7052499999999999 -2.3301666666666665 -1.9400833333333334 -1.4707777777777777 2.4335 -0.049944444444444444z" stroke-width="1"></path></svg>